<?xml version="1.0" encoding="UTF-8"?>
<svg id="Calque_1" data-name="Calque 1" xmlns="http://www.w3.org/2000/svg" viewBox="0 0 412.91 412.91">
  <defs>
    <style>
      .cls-1 {
        stroke-width: 6px;
      }

      .cls-1, .cls-2 {
        fill: none;
        stroke: #1d1d1b;
        stroke-miterlimit: 10;
      }

      .cls-3 {
        fill: #fff;
        font-family: CooperBlackStd, 'Cooper Std';
        font-size: 28.46px;
      }

      .cls-4 {
        fill: #1d1d1b;
        stroke-width: 0px;
      }

      .cls-2 {
        stroke-width: 29px;
      }
    </style>
  </defs>
  <circle class="cls-2" cx="206.45" cy="206.45" r="191.95"/>
  <path class="cls-4" d="M206.45,180.65c-14.25,0-25.8,11.55-25.8,25.8s11.55,25.8,25.8,25.8,25.8-11.55,25.8-25.8-11.55-25.8-25.8-25.8ZM212.12,216.27h-11.33l-5.67-9.82,5.67-9.82h11.33l5.67,9.82-5.67,9.82Z"/>
  <text class="cls-3" transform="translate(65.34 89.76) rotate(-47.04)"><tspan x="0" y="0">B</tspan></text>
  <text class="cls-3" transform="translate(79.44 74.34) rotate(-39.77)"><tspan x="0" y="0">M</tspan></text>
  <text class="cls-3" transform="translate(99.32 57.86) rotate(-32.13)"><tspan x="0" y="0">X</tspan></text>
  <text class="cls-3" transform="translate(89.76 347.56) rotate(-137.04)"><tspan x="0" y="0">B</tspan></text>
  <text class="cls-3" transform="translate(74.34 333.47) rotate(-129.77)"><tspan x="0" y="0">M</tspan></text>
  <text class="cls-3" transform="translate(57.86 313.59) rotate(-122.13)"><tspan x="0" y="0">X</tspan></text>
  <text class="cls-3" transform="translate(347.56 323.15) rotate(132.96)"><tspan x="0" y="0">B</tspan></text>
  <text class="cls-3" transform="translate(333.47 338.57) rotate(140.23)"><tspan x="0" y="0">M</tspan></text>
  <text class="cls-3" transform="translate(313.59 355.05) rotate(147.87)"><tspan x="0" y="0">X</tspan></text>
  <text class="cls-3" transform="translate(323.15 65.34) rotate(42.96)"><tspan x="0" y="0">B</tspan></text>
  <text class="cls-3" transform="translate(338.57 79.44) rotate(50.23)"><tspan x="0" y="0">M</tspan></text>
  <text class="cls-3" transform="translate(355.05 99.32) rotate(57.87)"><tspan x="0" y="0">X</tspan></text>
  <g>
    <line class="cls-1" x1="196.04" y1="182.96" x2="129.7" y2="40.68"/>
    <line class="cls-1" x1="283.21" y1="369.89" x2="216.86" y2="227.61"/>
  </g>
  <g>
    <line class="cls-1" x1="187.58" y1="189.45" x2="67.32" y2="88.54"/>
    <line class="cls-1" x1="345.58" y1="322.03" x2="225.32" y2="221.11"/>
  </g>
  <g>
    <line class="cls-1" x1="182.66" y1="198.91" x2="31.02" y2="158.27"/>
    <line class="cls-1" x1="381.89" y1="252.29" x2="230.25" y2="211.66"/>
  </g>
  <g>
    <line class="cls-1" x1="182.2" y1="209.56" x2="27.59" y2="236.82"/>
    <line class="cls-1" x1="385.32" y1="173.74" x2="230.71" y2="201"/>
  </g>
  <g>
    <line class="cls-1" x1="186.28" y1="219.41" x2="57.68" y2="309.45"/>
    <line class="cls-1" x1="355.23" y1="101.11" x2="226.63" y2="191.15"/>
  </g>
  <g>
    <line class="cls-1" x1="194.14" y1="226.61" x2="115.64" y2="362.57"/>
    <line class="cls-1" x1="297.26" y1="47.99" x2="218.77" y2="183.95"/>
  </g>
  <g>
    <line class="cls-1" x1="204.31" y1="229.82" x2="190.62" y2="386.21"/>
    <line class="cls-1" x1="222.28" y1="24.35" x2="208.6" y2="180.74"/>
  </g>
</svg>